<?xml version="1.0" encoding="UTF-8" standalone="no"?>
<!-- Created with Inkscape (http://www.inkscape.org/) -->

<svg
   width="540"
   height="540"
   viewBox="0 0 142.87485 142.87485"
   version="1.1"
   id="svg5"
   xml:space="preserve"
   inkscape:version="1.2 (dc2aedaf03, 2022-05-15)"
   sodipodi:docname="icon-only.svg"
   inkscape:export-filename="icon-only.png"
   inkscape:export-xdpi="96"
   inkscape:export-ydpi="96"
   xmlns:inkscape="http://www.inkscape.org/namespaces/inkscape"
   xmlns:sodipodi="http://sodipodi.sourceforge.net/DTD/sodipodi-0.dtd"
   xmlns="http://www.w3.org/2000/svg"
   xmlns:svg="http://www.w3.org/2000/svg"><sodipodi:namedview
     id="namedview7"
     pagecolor="#ffffff"
     bordercolor="#000000"
     borderopacity="0.25"
     inkscape:showpageshadow="true"
     inkscape:pageopacity="0.0"
     inkscape:pagecheckerboard="false"
     inkscape:deskcolor="#d1d1d1"
     inkscape:document-units="mm"
     showgrid="false"
     showborder="true"
     inkscape:zoom="1.0303522"
     inkscape:cx="91.716211"
     inkscape:cy="340.17494"
     inkscape:window-width="1920"
     inkscape:window-height="991"
     inkscape:window-x="-9"
     inkscape:window-y="-9"
     inkscape:window-maximized="1"
     inkscape:current-layer="layer1" /><defs
     id="defs2" /><g
     inkscape:label="Laag 1"
     inkscape:groupmode="layer"
     id="layer1"
     transform="translate(-85.148206,-100.91931)"><g
       id="g6841"
       style="opacity:1;fill:#0d9488;fill-opacity:1"
       transform="matrix(4.503891,0,0,4.503891,-193.67102,-329.88839)"><g
         id="g7329"
         style="fill:#0d9488;fill-opacity:1"><g
           id="g7333"
           style="fill:#0d9488;fill-opacity:1"><path
             id="path6576"
             style="opacity:1;fill:#0d9488;fill-opacity:1;stroke-width:0.264583"
             d="m 65.415645,98.736609 c -1.944162,0 -3.509346,1.565181 -3.509346,3.509351 v 18.5353 c 0,1.94416 1.565184,3.50934 3.509346,3.50934 h 18.535303 c 1.944162,0 3.509347,-1.56518 3.509347,-3.50934 v -10.55595 l -3.181718,3.07372 v 7.80211 H 65.078715 v -19.19987 h 17.062524 l 2.862358,-3.005498 C 84.67158,98.7922 84.317955,98.736609 83.950948,98.736609 Z m 22.320085,1.183907 c -0.240201,-0.0069 -0.506986,0.07546 -0.669727,0.221694 -1.006667,0.90455 -3.69907,3.36721 -5.208467,5.16506 -0.187904,0.22382 -0.477367,0.59692 -0.649056,0.83095 -1.301317,1.77388 -3.09098,4.73077 -3.763595,5.85753 -0.149796,0.2509 -0.407108,0.26334 -0.578259,0.0284 -0.54283,-0.7451 -1.70039,-2.30499 -2.632397,-3.36259 -0.193212,-0.21924 -0.518476,-0.56149 -0.727088,-0.76326 -1.107642,-1.07133 -2.88463,-2.49797 -3.686597,-3.13107 -0.229385,-0.18108 -0.470755,-0.0959 -0.537434,0.18862 l -0.961182,4.10311 c -0.06668,0.28454 0.07054,0.65436 0.304891,0.82837 0.785615,0.58338 2.48062,1.86877 3.552238,2.87889 0.212644,0.20044 0.540821,0.54232 0.734322,0.76068 1.341641,1.51401 3.10323,4.05766 3.793567,5.07411 0.164197,0.24174 0.437101,0.24935 0.612882,0.016 1.154204,-1.53209 5.205401,-6.8487 7.967989,-9.70018 0.203351,-0.2099 0.539705,-0.54341 0.752409,-0.74311 2.173143,-2.0403 6.129296,-4.97378 7.431071,-5.92625 0.235865,-0.17257 0.203366,-0.38613 -0.0739,-0.47853 L 87.96207,99.957683 c -0.06932,-0.0231 -0.146276,-0.03492 -0.226343,-0.03721 z" /></g></g></g></g></svg>
