<?xml version="1.0" encoding="UTF-8" standalone="no"?>
<!-- Created with Inkscape (http://www.inkscape.org/) -->

<svg
   width="120.97206mm"
   height="20.46089mm"
   viewBox="0 0 120.97194 20.460869"
   version="1.1"
   id="svg5"
   xml:space="preserve"
   inkscape:version="1.2 (dc2aedaf03, 2022-05-15)"
   sodipodi:docname="logo.svg"
   inkscape:export-filename="logo.png"
   inkscape:export-xdpi="96"
   inkscape:export-ydpi="96"
   xmlns:inkscape="http://www.inkscape.org/namespaces/inkscape"
   xmlns:sodipodi="http://sodipodi.sourceforge.net/DTD/sodipodi-0.dtd"
   xmlns="http://www.w3.org/2000/svg"
   xmlns:svg="http://www.w3.org/2000/svg"><sodipodi:namedview
     id="namedview7"
     pagecolor="#ffffff"
     bordercolor="#000000"
     borderopacity="0.25"
     inkscape:showpageshadow="true"
     inkscape:pageopacity="0.0"
     inkscape:pagecheckerboard="false"
     inkscape:deskcolor="#d1d1d1"
     inkscape:document-units="mm"
     showgrid="false"
     showborder="true"
     inkscape:zoom="1.0303522"
     inkscape:cx="51.923993"
     inkscape:cy="109.18597"
     inkscape:window-width="1920"
     inkscape:window-height="991"
     inkscape:window-x="-9"
     inkscape:window-y="-9"
     inkscape:window-maximized="1"
     inkscape:current-layer="text3744" /><defs
     id="defs2"><inkscape:path-effect
       effect="fillet_chamfer"
       id="path-effect6837"
       is_visible="true"
       lpeversion="1"
       nodesatellites_param="F,0,0,1,0,0.52916667,0,1 @ F,0,0,1,0,0.52916667,0,1 @ F,0,0,1,0,0.52916667,0,1 @ F,0,0,1,0,0.52916667,0,1 @ F,0,0,1,0,0.52916667,0,1 @ F,0,0,1,0,0.52916667,0,1 @ F,0,0,1,0,0.52916667,0,1 @ F,0,0,1,0,0.52916667,0,1 @ F,0,0,1,0,0.52916667,0,1 @ F,0,0,1,0,0.52916667,0,1"
       unit="px"
       method="auto"
       mode="F"
       radius="2"
       chamfer_steps="1"
       flexible="false"
       use_knot_distance="true"
       apply_no_radius="true"
       apply_with_radius="true"
       only_selected="false"
       hide_knots="false" /></defs><g
     inkscape:label="Laag 1"
     inkscape:groupmode="layer"
     id="layer1"
     transform="translate(-85.148206,-100.91931)"><g
       aria-label="VOTIFY"
       id="text3744"
       style="font-size:22.7542px;font-family:'Bookman Old Style';-inkscape-font-specification:'Bookman Old Style, Normal';fill:#3d3d3d;stroke-width:0.264583"><path
         d="m 121.10311,103.52798 h 5.65522 v 0.94439 h -0.43331 q -0.59997,0 -0.75551,0.0444 -0.22221,0.0667 -0.34443,0.22221 -0.1111,0.14444 -0.1111,0.33332 0,0.29998 0.22221,0.86661 l 4.11087,10.7327 4.1553,-10.7327 q 0.22221,-0.56663 0.22221,-0.8555 0,-0.32221 -0.22221,-0.46664 -0.22221,-0.14444 -0.91105,-0.14444 h -0.51108 v -0.94439 h 4.81082 v 0.94439 q -0.62219,-0.0111 -0.92217,0.11111 -0.28887,0.12221 -0.47775,0.34442 -0.23332,0.29998 -0.52219,1.01105 l -5.26635,13.08811 h -1.57768 l -5.2108,-13.08811 q -0.25555,-0.6444 -0.35554,-0.79995 -0.15555,-0.23332 -0.35553,-0.37776 -0.18888,-0.14443 -0.45553,-0.21109 -0.26665,-0.0778 -0.7444,-0.0778 z"
         id="path444" /><path
         d="m 146.33494,103.26133 q 2.12209,0 3.8331,1.02217 1.85545,1.09993 2.84428,2.85538 0.99994,1.75545 0.99994,4.06643 0,3.57756 -2.22209,5.83298 -2.22209,2.25542 -5.66633,2.25542 -3.84422,0 -6.08853,-2.71095 -1.83322,-2.21098 -1.83322,-5.28857 0,-2.28875 1.03327,-4.09976 1.03327,-1.82211 2.93316,-2.8776 1.89989,-1.0555 4.16642,-1.0555 z m 0,1.19993 q -1.73323,0 -2.9776,0.79995 -1.24437,0.78885 -1.99988,2.3332 -0.7444,1.54435 -0.7444,3.81088 0,2.16654 0.73329,3.67756 0.7444,1.49991 1.98877,2.29986 1.24437,0.79996 2.79983,0.79996 1.54435,0 2.73317,-0.77773 1.18882,-0.78885 1.96655,-2.46652 0.77773,-1.68879 0.77773,-3.74423 0,-2.08876 -0.77773,-3.82199 -0.66663,-1.4888 -1.76656,-2.19987 -1.09994,-0.71107 -2.73317,-0.71107 z"
         id="path446" /><path
         d="m 156.60099,103.00579 h 0.77774 l 0.1111,0.52219 h 9.51055 l 0.0889,-0.52219 h 0.81106 l 1.63324,4.55529 -0.99994,0.35553 q -0.72218,-1.82211 -1.71101,-2.5554 -0.98883,-0.7444 -2.53318,-0.7444 -0.64441,0 -0.76663,0.0555 -0.12221,0.0444 -0.17776,0.16666 -0.0444,0.12221 -0.0444,0.77773 v 10.75491 q 0,0.76663 0.0778,1.03328 0.0889,0.26665 0.24443,0.41108 0.15555,0.14444 0.4222,0.2111 0.27776,0.0555 1.22215,0.0667 v 0.93328 h -5.97743 v -0.93328 q 0.98883,-0.0111 1.21104,-0.0667 0.38887,-0.1111 0.55553,-0.4222 0.16665,-0.31109 0.16665,-1.14437 v -10.98824 q 0,-0.51108 -0.0555,-0.62218 -0.0444,-0.11111 -0.18888,-0.16666 -0.13332,-0.0667 -0.56663,-0.0667 -1.21104,0 -1.94433,0.31109 -0.72218,0.31109 -1.36658,1.05549 -0.64441,0.7444 -1.09994,1.93322 l -0.99994,-0.35553 z"
         id="path448" /><path
         d="m 170.2224,103.52798 h 5.93298 v 0.94439 h -0.45553 q -0.6444,0 -0.93327,0.17777 -0.28888,0.17777 -0.4222,0.51108 -0.13333,0.3222 -0.13333,1.26659 v 9.9883 q 0,0.75551 0.14444,1.07771 0.14444,0.31109 0.39998,0.45553 0.26665,0.14443 0.94438,0.14443 h 0.45553 v 0.93328 h -5.93298 v -0.93328 h 0.48886 q 0.65552,0 0.92217,-0.14443 0.27776,-0.15555 0.39998,-0.43331 0.12221,-0.28887 0.12221,-1.09993 v -10.22162 q 0,-0.8555 -0.12221,-1.14437 -0.12222,-0.29999 -0.39998,-0.43331 -0.26665,-0.14444 -0.92217,-0.14444 h -0.48886 z"
         id="path450" /><path
         d="m 178.26637,103.52798 h 11.85485 l 1.43324,4.06643 -0.9666,0.36664 q -0.61108,-1.42213 -1.19993,-2.04432 -0.58886,-0.62218 -1.36659,-0.88883 -0.77773,-0.26666 -2.4443,-0.26666 h -3.34424 v 5.95521 h 1.52213 q 1.19993,0 1.72212,-0.23332 0.52219,-0.23332 0.79995,-0.73329 0.27776,-0.51108 0.27776,-1.44436 v -0.41109 h 1.08883 v 6.7996 h -1.08883 v -0.59997 q 0,-0.87772 -0.26665,-1.36658 -0.26665,-0.48886 -0.73329,-0.69996 -0.45553,-0.22221 -1.63323,-0.22221 h -1.68879 v 4.82193 q 0,0.66663 0.13332,0.93328 0.14444,0.25554 0.41109,0.39998 0.27776,0.13332 0.97772,0.13332 h 0.41109 v 0.93328 h -5.89965 v -0.93328 h 0.37775 q 0.71107,0 0.97772,-0.13332 0.27776,-0.13333 0.39998,-0.41109 0.13332,-0.28887 0.13332,-1.03327 v -10.54382 q 0,-0.68884 -0.12221,-0.96661 -0.12222,-0.27776 -0.37776,-0.39997 -0.24443,-0.13333 -0.86661,-0.13333 h -0.52219 z"
         id="path452" /><path
         d="m 191.67668,103.52798 h 5.79966 v 0.94439 h -0.65552 q -0.59996,0 -0.77773,0.11111 -0.16666,0.1111 -0.16666,0.36664 0,0.22221 0.2111,0.59997 0.0556,0.0889 0.14444,0.25554 l 3.02204,5.59966 3.34425,-5.81076 q 0.19998,-0.35554 0.23332,-0.45553 0.0444,-0.1111 0.0444,-0.22221 0,-0.15555 -0.0889,-0.25554 -0.0778,-0.1111 -0.25554,-0.16666 -0.1111,-0.0222 -0.62218,-0.0222 h -0.57775 v -0.94439 h 4.78861 v 0.94439 q -0.6333,-0.0111 -0.94439,0.0778 -0.29998,0.0889 -0.49997,0.27776 -0.18888,0.17776 -0.54441,0.76662 l -4.19975,6.99958 v 3.89977 q 0,0.8555 0.13332,1.11104 0.14444,0.25554 0.44442,0.37776 0.29998,0.1111 1.39992,0.1111 v 0.93328 h -6.0552 v -0.93328 h 0.46664 q 0.7444,0 0.98883,-0.13332 0.25554,-0.13333 0.39998,-0.43331 0.1,-0.2111 0.1,-1.03327 v -3.48868 l -4.09975,-7.28846 q -0.48886,-0.87772 -0.82218,-1.04438 -0.3222,-0.17777 -1.21104,-0.19999 z"
         id="path454" /></g><g
       id="g6841"
       style="opacity:1;fill:#0d9488;fill-opacity:1"
       transform="matrix(0.80069257,0,0,0.80069257,35.580292,21.861638)"><g
         id="g7329"
         style="fill:#0d9488;fill-opacity:1"><g
           id="g7333"
           style="fill:#0d9488;fill-opacity:1"><path
             id="path268"
             style="opacity:1;fill:#0d9488;fill-opacity:1;stroke-width:0.264583"
             d="m 65.415645,98.736609 c -1.944162,0 -3.509346,1.565181 -3.509346,3.509351 v 18.5353 c 0,1.94416 1.565184,3.50934 3.509346,3.50934 h 18.535303 c 1.944162,0 3.509347,-1.56518 3.509347,-3.50934 v -10.55595 l -3.181718,3.07372 v 7.80211 H 65.078715 v -19.19987 h 17.062524 l 2.862358,-3.005498 C 84.67158,98.7922 84.317955,98.736609 83.950948,98.736609 Z m 22.320085,1.183907 c -0.240201,-0.0069 -0.506986,0.07546 -0.669727,0.221694 -1.006667,0.90455 -3.69907,3.36721 -5.208467,5.16506 -0.187904,0.22382 -0.477367,0.59692 -0.649056,0.83095 -1.301317,1.77388 -3.09098,4.73077 -3.763595,5.85753 -0.149796,0.2509 -0.407108,0.26334 -0.578259,0.0284 -0.54283,-0.7451 -1.70039,-2.30499 -2.632397,-3.36259 -0.193212,-0.21924 -0.518476,-0.56149 -0.727088,-0.76326 -1.107642,-1.07133 -2.88463,-2.49797 -3.686597,-3.13107 -0.229385,-0.18108 -0.470755,-0.0959 -0.537434,0.18862 l -0.961182,4.10311 c -0.06668,0.28454 0.07054,0.65436 0.304891,0.82837 0.785615,0.58338 2.48062,1.86877 3.552238,2.87889 0.212644,0.20044 0.540821,0.54232 0.734322,0.76068 1.341641,1.51401 3.10323,4.05766 3.793567,5.07411 0.164197,0.24174 0.437101,0.24935 0.612882,0.016 1.154204,-1.53209 5.205401,-6.8487 7.967989,-9.70018 0.203351,-0.2099 0.539705,-0.54341 0.752409,-0.74311 2.173143,-2.0403 6.129296,-4.97378 7.431071,-5.92625 0.235865,-0.17257 0.203366,-0.38613 -0.0739,-0.47853 L 87.96207,99.957683 c -0.06932,-0.0231 -0.146276,-0.03492 -0.226343,-0.03721 z" /></g></g></g></g></svg>
